<svg xmlns="http://www.w3.org/2000/svg" width="462" height="462" viewBox="0 0 462 462" version="1.1"><path d="M 452.199 2.750 C 453.614 4.263, 455.611 7.075, 456.636 9 C 458.436 12.379, 458.510 19.954, 458.787 228 C 458.945 346.525, 458.822 444.911, 458.514 446.635 C 457.784 450.710, 453.111 457.621, 449.414 460.093 L 446.500 462.042 454.500 461.771 L 462.500 461.500 462.438 458.750 C 462.403 457.238, 462.291 353.400, 462.188 228 L 462 0 455.813 0 L 449.626 0 452.199 2.750 M 25.500 13.486 C 20.506 15.242, 13.781 22.450, 12.193 27.749 C 11.286 30.778, 11.005 79.503, 11.022 231.116 C 11.043 421.840, 11.123 430.674, 12.866 434.500 C 15.193 439.611, 21.787 445.567, 26.688 446.986 C 29.426 447.779, 85.705 448.007, 226.500 447.795 L 422.500 447.500 426.653 445.279 C 431.930 442.457, 436.480 436.957, 437.932 431.644 C 438.763 428.605, 438.990 374.005, 438.783 226.927 L 438.500 26.354 435.741 22.185 C 434.224 19.893, 431.107 16.776, 428.815 15.259 L 424.646 12.500 227.073 12.290 C 59.490 12.112, 28.893 12.293, 25.500 13.486 M 31.500 21.866 C 26.390 24.193, 20.434 30.786, 19.012 35.688 C 18.218 38.428, 17.990 93.492, 18.204 231.579 L 18.500 423.657 21.526 428.552 C 23.402 431.586, 26.414 434.598, 29.448 436.474 L 34.343 439.500 223.921 439.774 C 436.455 440.082, 418.305 440.732, 425.858 432.538 C 428.067 430.142, 430.358 426.384, 430.950 424.187 C 431.704 421.386, 431.947 362.840, 431.763 228.268 L 431.500 36.343 428.469 31.440 C 425.134 26.047, 420.664 22.557, 415.118 21.016 C 412.752 20.359, 346.426 20.017, 223.500 20.028 C 43.782 20.043, 35.324 20.124, 31.500 21.866 M 68.759 56.423 C 61.404 59.048, 56.471 63.933, 54.138 70.899 C 53.307 73.383, 53 116.685, 53 231.681 C 53 371.049, 53.176 389.486, 54.538 392.746 C 56.517 397.482, 58.471 399.643, 63.946 403.151 L 68.392 406 223.228 406 C 350.869 406, 378.629 405.763, 381.282 404.652 C 385.931 402.704, 390.808 398.297, 392.935 394.124 C 394.698 390.665, 394.816 383.385, 395.527 233.899 C 396.104 112.392, 395.999 76.164, 395.057 72.237 C 393.571 66.043, 388.594 59.950, 382.682 57.088 L 378.369 55 225.434 55.044 C 100.505 55.080, 71.815 55.332, 68.759 56.423 M 73.936 66.750 C 70.384 68.551, 67.475 70.996, 65.506 73.836 L 62.500 78.172 62.213 226.836 C 62.056 308.601, 62.196 377.003, 62.526 378.840 C 62.868 380.748, 64.830 384.029, 67.102 386.495 C 74.654 394.688, 60.378 394, 222.933 394 C 351.879 394, 368.479 393.827, 371.782 392.447 C 376.498 390.477, 380.587 386.605, 383.342 381.500 L 385.500 377.500 385.823 232 C 386.063 123.761, 385.847 85.129, 384.978 81.148 C 383.635 74.990, 378.855 68.987, 372.858 65.928 C 369.178 64.050, 365.292 64, 224.219 64 L 79.359 64 73.936 66.750 M 210.418 88.969 C 207.237 90.256, 203.007 95.834, 202.943 98.827 C 202.912 100.297, 202.936 106.563, 202.996 112.750 L 203.106 124 187.521 124 C 170.416 124, 166.874 124.802, 163.168 129.514 C 161.120 132.118, 161 133.301, 161 150.961 C 161 169.070, 161.070 169.715, 163.250 171.701 C 166.239 174.424, 168.731 175.598, 173.250 176.414 L 177 177.091 177 182.406 C 177 185.329, 177.291 189.847, 177.648 192.445 L 178.295 197.170 188.408 187.091 L 198.522 177.012 210.939 176.504 C 229.966 175.726, 231.285 174.295, 231.847 153.818 C 232.056 146.218, 232.513 140.003, 232.863 140.007 C 234.538 140.024, 239.433 144.275, 246.959 152.250 C 251.502 157.063, 255.619 161, 256.109 161 C 256.599 161, 257 156.275, 257 150.500 L 257 140 259.935 140 C 263.799 140, 267.968 138.365, 270.750 135.759 C 272.932 133.715, 273 133.071, 273 114.472 C 273 95.479, 272.976 95.266, 270.538 92.636 C 269.184 91.175, 266.905 89.534, 265.473 88.990 C 262.311 87.787, 213.385 87.769, 210.418 88.969 M 213.354 92.692 C 212.174 92.923, 210.374 94.032, 209.354 95.158 C 207.764 96.913, 207.454 99.276, 207.173 111.786 C 206.993 119.806, 207.126 127.859, 207.468 129.681 C 208.429 134.804, 211.789 136, 225.224 136 L 236.547 136 244.523 144.032 L 252.500 152.064 253 144.282 L 253.500 136.500 259.355 135.980 C 268.643 135.154, 269.007 134.327, 268.968 114.139 C 268.934 96.218, 268.610 94.943, 263.603 93.039 C 260.998 92.049, 218.156 91.753, 213.354 92.692 M 214.644 105.485 C 214.313 106.349, 214.868 107.394, 215.971 107.985 C 218.004 109.073, 257.697 109.437, 260.418 108.393 C 261.288 108.059, 262 106.934, 262 105.893 C 262 104.090, 260.893 104, 238.607 104 C 218.843 104, 215.126 104.230, 214.644 105.485 M 216.346 117.540 C 215.183 120.571, 217.552 121.059, 232.079 120.779 C 245.740 120.515, 246.500 120.395, 246.500 118.500 C 246.500 116.603, 245.741 116.486, 231.729 116.223 C 218.968 115.984, 216.875 116.163, 216.346 117.540 M 167.455 131.455 C 165.046 133.863, 165 134.218, 165 150.500 C 165 166.782, 165.046 167.137, 167.455 169.545 C 169.396 171.487, 170.939 172, 174.832 172 C 181.520 172, 182.417 173.282, 181.529 181.576 C 180.863 187.792, 180.928 188.109, 182.680 187.171 C 183.702 186.624, 186.508 183.840, 188.916 180.984 C 195.870 172.737, 197.647 172.008, 210.795 172.004 C 221.452 172, 222.230 171.861, 224.545 169.545 C 226.910 167.181, 227 166.594, 227 153.545 L 227 140 219.901 140 C 210.716 140, 206.258 137.976, 204.096 132.823 L 202.500 129.020 186.205 129.010 C 170.230 129, 169.861 129.048, 167.455 131.455 M 172 143.893 C 172 146.640, 173.795 147, 187.500 147 C 201.205 147, 203 146.640, 203 143.893 C 203 142.117, 202.041 142, 187.500 142 C 172.959 142, 172 142.117, 172 143.893 M 172.380 155.452 C 171.133 158.702, 173.060 159, 195.359 159 C 218.069 159, 221.464 158.469, 218.854 155.324 C 217.160 153.283, 173.166 153.405, 172.380 155.452 M 276.257 169.119 C 273.373 170.228, 268.629 173.314, 265.715 175.978 C 255.943 184.909, 251.677 196.697, 253.884 208.672 C 255.436 217.099, 257.993 222.054, 264.138 228.552 C 278.028 243.239, 301.002 243.523, 315.557 229.188 C 330.747 214.226, 330.311 191.042, 314.560 176.145 C 307.628 169.589, 300.508 166.984, 289.712 167.052 C 283.984 167.088, 279.914 167.714, 276.257 169.119 M 281.929 171.308 C 266.825 175.577, 257.475 187.747, 257.526 203.073 C 257.548 209.564, 258.015 211.588, 260.796 217.237 C 266.608 229.044, 276.919 235.487, 290 235.487 C 303.104 235.487, 313.393 229.044, 319.229 217.183 C 322.065 211.421, 322.494 209.537, 322.458 203.018 C 322.386 189.990, 315.994 179.572, 304.664 174.020 C 297.354 170.438, 288.674 169.402, 281.929 171.308 M 150.929 217.308 C 140.871 220.151, 131.733 227.922, 126.856 237.784 C 124.886 241.767, 124.521 244.054, 124.512 252.500 C 124.501 261.368, 124.807 263.126, 127.216 268.030 C 132.867 279.535, 142.041 286.564, 154.604 289.013 C 169.851 291.985, 186.280 283.316, 193.581 268.446 C 196.186 263.140, 196.500 261.475, 196.500 252.977 C 196.500 244.252, 196.227 242.899, 193.250 236.854 C 187.200 224.569, 175.817 216.964, 162.555 216.346 C 158.675 216.165, 153.443 216.598, 150.929 217.308 M 152.734 221.029 C 138.478 224.612, 129.052 236.125, 128.224 250.966 C 127.693 260.495, 130.240 267.827, 136.503 274.792 C 151.872 291.886, 178.969 287.876, 190.176 266.849 C 192.132 263.180, 192.495 261.014, 192.497 253 C 192.500 241.959, 190.613 236.934, 183.844 229.959 C 176.360 222.247, 163.069 218.432, 152.734 221.029 M 254.355 246.039 C 244.125 248.064, 234.157 256.091, 229.567 266 C 227.339 270.810, 227.018 272.848, 227.010 282.250 C 227.002 290.676, 227.295 293, 228.366 293 C 229.390 293, 229.872 290.555, 230.289 283.250 C 230.955 271.560, 232.128 267.690, 236.932 261.326 C 239.544 257.867, 242.518 255.509, 247.437 253 L 254.298 249.500 289.920 249.500 L 325.542 249.500 332.209 252.782 C 343.938 258.556, 348.704 266.775, 349.688 282.921 C 350.163 290.717, 350.627 293, 351.735 293 C 352.916 293, 353.109 290.938, 352.834 281.250 C 352.454 267.892, 350.907 263.434, 344.280 256.603 C 333.780 245.780, 329.962 244.971, 290.040 245.110 C 272.693 245.170, 256.635 245.588, 254.355 246.039 M 124 295.916 C 114.790 297.845, 104.646 305.943, 100.275 314.858 C 97.851 319.800, 97.463 321.907, 97.143 331.845 C 96.801 342.470, 96.896 343.167, 98.639 342.834 C 100.271 342.523, 100.565 341.189, 101.030 331.990 C 101.644 319.830, 103.507 314.743, 109.650 308.453 C 111.824 306.228, 115.830 303.303, 118.551 301.953 L 123.500 299.500 160.500 299.500 L 197.500 299.500 202.449 301.953 C 208.572 304.989, 214.162 310.638, 217.149 316.807 C 218.900 320.422, 219.545 323.910, 219.961 331.990 C 220.435 341.223, 220.725 342.522, 222.380 342.838 C 224.153 343.176, 224.231 342.552, 223.768 331.848 C 223.203 318.790, 221.613 314.168, 215.195 306.927 C 212.966 304.412, 208.297 300.812, 204.821 298.927 L 198.500 295.500 163 295.342 C 143.475 295.255, 125.925 295.513, 124 295.916 M 1 459.845 C 1 461.513, 1.603 462, 3.667 462 C 5.133 462, 6.146 461.883, 5.917 461.739 C 5.688 461.596, 4.488 460.626, 3.250 459.584 C 1.027 457.713, 1 457.716, 1 459.845" stroke="none" fill="#fcf8f7" fill-rule="evenodd"/><path d="M 1.200 1.200 C 0.274 2.126, -0 54.225, -0 229.611 L -0 456.822 3.077 459.411 L 6.153 462 226.327 461.993 C 441.791 461.987, 446.562 461.946, 449.414 460.066 C 453.098 457.637, 457.782 450.725, 458.514 446.635 C 458.822 444.911, 458.945 346.525, 458.787 228 C 458.510 19.954, 458.436 12.379, 456.636 9 C 455.611 7.075, 453.614 4.262, 452.199 2.750 L 449.626 -0 226.013 -0 C 53.425 -0, 2.126 0.274, 1.200 1.200 M 25.500 13.486 C 20.506 15.242, 13.781 22.450, 12.193 27.749 C 11.286 30.778, 11.005 79.503, 11.022 231.116 C 11.043 421.840, 11.123 430.674, 12.866 434.500 C 15.193 439.611, 21.787 445.567, 26.688 446.986 C 29.426 447.779, 85.705 448.007, 226.500 447.795 L 422.500 447.500 426.653 445.279 C 431.930 442.457, 436.480 436.957, 437.932 431.644 C 438.763 428.605, 438.990 374.005, 438.783 226.927 L 438.500 26.354 435.741 22.185 C 434.224 19.893, 431.107 16.776, 428.815 15.259 L 424.646 12.500 227.073 12.290 C 59.490 12.112, 28.893 12.293, 25.500 13.486 M 31.500 21.866 C 26.390 24.193, 20.434 30.786, 19.012 35.688 C 18.218 38.428, 17.990 93.492, 18.204 231.579 L 18.500 423.657 21.526 428.552 C 23.402 431.586, 26.414 434.598, 29.448 436.474 L 34.343 439.500 223.921 439.774 C 436.455 440.082, 418.305 440.732, 425.858 432.538 C 428.067 430.142, 430.358 426.384, 430.950 424.187 C 431.704 421.386, 431.947 362.840, 431.763 228.268 L 431.500 36.343 428.469 31.440 C 425.134 26.047, 420.664 22.557, 415.118 21.016 C 412.752 20.359, 346.426 20.017, 223.500 20.028 C 43.782 20.043, 35.324 20.124, 31.500 21.866 M 68.759 56.423 C 61.404 59.048, 56.471 63.933, 54.138 70.899 C 53.307 73.383, 53 116.685, 53 231.681 C 53 371.049, 53.176 389.486, 54.538 392.746 C 56.517 397.482, 58.471 399.643, 63.946 403.151 L 68.392 406 223.228 406 C 350.869 406, 378.629 405.763, 381.282 404.652 C 385.931 402.704, 390.808 398.297, 392.935 394.124 C 394.698 390.665, 394.816 383.385, 395.527 233.899 C 396.104 112.392, 395.999 76.164, 395.057 72.237 C 393.571 66.043, 388.594 59.950, 382.682 57.088 L 378.369 55 225.434 55.044 C 100.505 55.080, 71.815 55.332, 68.759 56.423 M 73.936 66.750 C 70.384 68.551, 67.475 70.996, 65.506 73.836 L 62.500 78.172 62.213 226.836 C 62.056 308.601, 62.196 377.003, 62.526 378.840 C 62.868 380.748, 64.830 384.029, 67.102 386.495 C 74.654 394.688, 60.378 394, 222.933 394 C 351.879 394, 368.479 393.827, 371.782 392.447 C 376.498 390.477, 380.587 386.605, 383.342 381.500 L 385.500 377.500 385.823 232 C 386.063 123.761, 385.847 85.129, 384.978 81.148 C 383.635 74.990, 378.855 68.987, 372.858 65.928 C 369.178 64.050, 365.292 64, 224.219 64 L 79.359 64 73.936 66.750 M 210.418 88.969 C 207.237 90.256, 203.007 95.834, 202.943 98.827 C 202.912 100.297, 202.936 106.563, 202.996 112.750 L 203.106 124 187.521 124 C 170.416 124, 166.874 124.802, 163.168 129.514 C 161.120 132.118, 161 133.301, 161 150.961 C 161 169.070, 161.070 169.715, 163.250 171.701 C 166.239 174.424, 168.731 175.598, 173.250 176.414 L 177 177.091 177 182.406 C 177 185.329, 177.291 189.847, 177.648 192.445 L 178.295 197.170 188.408 187.091 L 198.522 177.012 210.939 176.504 C 229.966 175.726, 231.285 174.295, 231.847 153.818 C 232.056 146.218, 232.513 140.003, 232.863 140.007 C 234.538 140.024, 239.433 144.275, 246.959 152.250 C 251.502 157.063, 255.619 161, 256.109 161 C 256.599 161, 257 156.275, 257 150.500 L 257 140 259.935 140 C 263.799 140, 267.968 138.365, 270.750 135.759 C 272.932 133.715, 273 133.071, 273 114.472 C 273 95.479, 272.976 95.266, 270.538 92.636 C 269.184 91.175, 266.905 89.534, 265.473 88.990 C 262.311 87.787, 213.385 87.769, 210.418 88.969 M 213.354 92.692 C 212.174 92.923, 210.374 94.032, 209.354 95.158 C 207.764 96.913, 207.454 99.276, 207.173 111.786 C 206.993 119.806, 207.126 127.859, 207.468 129.681 C 208.429 134.804, 211.789 136, 225.224 136 L 236.547 136 244.523 144.032 L 252.500 152.064 253 144.282 L 253.500 136.500 259.355 135.980 C 268.643 135.154, 269.007 134.327, 268.968 114.139 C 268.934 96.218, 268.610 94.943, 263.603 93.039 C 260.998 92.049, 218.156 91.753, 213.354 92.692 M 214.644 105.485 C 214.313 106.349, 214.868 107.394, 215.971 107.985 C 218.004 109.073, 257.697 109.437, 260.418 108.393 C 261.288 108.059, 262 106.934, 262 105.893 C 262 104.090, 260.893 104, 238.607 104 C 218.843 104, 215.126 104.230, 214.644 105.485 M 216.346 117.540 C 215.183 120.571, 217.552 121.059, 232.079 120.779 C 245.740 120.515, 246.500 120.395, 246.500 118.500 C 246.500 116.603, 245.741 116.486, 231.729 116.223 C 218.968 115.984, 216.875 116.163, 216.346 117.540 M 167.455 131.455 C 165.046 133.863, 165 134.218, 165 150.500 C 165 166.782, 165.046 167.137, 167.455 169.545 C 169.396 171.487, 170.939 172, 174.832 172 C 181.520 172, 182.417 173.282, 181.529 181.576 C 180.863 187.792, 180.928 188.109, 182.680 187.171 C 183.702 186.624, 186.508 183.840, 188.916 180.984 C 195.870 172.737, 197.647 172.008, 210.795 172.004 C 221.452 172, 222.230 171.861, 224.545 169.545 C 226.910 167.181, 227 166.594, 227 153.545 L 227 140 219.901 140 C 210.716 140, 206.258 137.976, 204.096 132.823 L 202.500 129.020 186.205 129.010 C 170.230 129, 169.861 129.048, 167.455 131.455 M 172 143.893 C 172 146.640, 173.795 147, 187.500 147 C 201.205 147, 203 146.640, 203 143.893 C 203 142.117, 202.041 142, 187.500 142 C 172.959 142, 172 142.117, 172 143.893 M 172.380 155.452 C 171.133 158.702, 173.060 159, 195.359 159 C 218.069 159, 221.464 158.469, 218.854 155.324 C 217.160 153.283, 173.166 153.405, 172.380 155.452 M 276.257 169.119 C 273.373 170.228, 268.629 173.314, 265.715 175.978 C 255.943 184.909, 251.677 196.697, 253.884 208.672 C 255.436 217.099, 257.993 222.054, 264.138 228.552 C 278.028 243.239, 301.002 243.523, 315.557 229.188 C 330.747 214.226, 330.311 191.042, 314.560 176.145 C 307.628 169.589, 300.508 166.984, 289.712 167.052 C 283.984 167.088, 279.914 167.714, 276.257 169.119 M 281.929 171.308 C 266.825 175.577, 257.475 187.747, 257.526 203.073 C 257.548 209.564, 258.015 211.588, 260.796 217.237 C 266.608 229.044, 276.919 235.487, 290 235.487 C 303.104 235.487, 313.393 229.044, 319.229 217.183 C 322.065 211.421, 322.494 209.537, 322.458 203.018 C 322.386 189.990, 315.994 179.572, 304.664 174.020 C 297.354 170.438, 288.674 169.402, 281.929 171.308 M 150.929 217.308 C 140.871 220.151, 131.733 227.922, 126.856 237.784 C 124.886 241.767, 124.521 244.054, 124.512 252.500 C 124.501 261.368, 124.807 263.126, 127.216 268.030 C 132.867 279.535, 142.041 286.564, 154.604 289.013 C 169.851 291.985, 186.280 283.316, 193.581 268.446 C 196.186 263.140, 196.500 261.475, 196.500 252.977 C 196.500 244.252, 196.227 242.899, 193.250 236.854 C 187.200 224.569, 175.817 216.964, 162.555 216.346 C 158.675 216.165, 153.443 216.598, 150.929 217.308 M 152.734 221.029 C 138.478 224.612, 129.052 236.125, 128.224 250.966 C 127.693 260.495, 130.240 267.827, 136.503 274.792 C 151.872 291.886, 178.969 287.876, 190.176 266.849 C 192.132 263.180, 192.495 261.014, 192.497 253 C 192.500 241.959, 190.613 236.934, 183.844 229.959 C 176.360 222.247, 163.069 218.432, 152.734 221.029 M 254.355 246.039 C 244.125 248.064, 234.157 256.091, 229.567 266 C 227.339 270.810, 227.018 272.848, 227.010 282.250 C 227.002 290.676, 227.295 293, 228.366 293 C 229.390 293, 229.872 290.555, 230.289 283.250 C 230.955 271.560, 232.128 267.690, 236.932 261.326 C 239.544 257.867, 242.518 255.509, 247.437 253 L 254.298 249.500 289.920 249.500 L 325.542 249.500 332.209 252.782 C 343.938 258.556, 348.704 266.775, 349.688 282.921 C 350.163 290.717, 350.627 293, 351.735 293 C 352.916 293, 353.109 290.938, 352.834 281.250 C 352.454 267.892, 350.907 263.434, 344.280 256.603 C 333.780 245.780, 329.962 244.971, 290.040 245.110 C 272.693 245.170, 256.635 245.588, 254.355 246.039 M 124 295.916 C 114.790 297.845, 104.646 305.943, 100.275 314.858 C 97.851 319.800, 97.463 321.907, 97.143 331.845 C 96.801 342.470, 96.896 343.167, 98.639 342.834 C 100.271 342.523, 100.565 341.189, 101.030 331.990 C 101.644 319.830, 103.507 314.743, 109.650 308.453 C 111.824 306.228, 115.830 303.303, 118.551 301.953 L 123.500 299.500 160.500 299.500 L 197.500 299.500 202.449 301.953 C 208.572 304.989, 214.162 310.638, 217.149 316.807 C 218.900 320.422, 219.545 323.910, 219.961 331.990 C 220.435 341.223, 220.725 342.522, 222.380 342.838 C 224.153 343.176, 224.231 342.552, 223.768 331.848 C 223.203 318.790, 221.613 314.168, 215.195 306.927 C 212.966 304.412, 208.297 300.812, 204.821 298.927 L 198.500 295.500 163 295.342 C 143.475 295.255, 125.925 295.513, 124 295.916" stroke="none" fill="#fc7125" fill-rule="evenodd"/></svg>